<?xml version="1.0" standalone="no"?>
<!DOCTYPE svg PUBLIC "-//W3C//DTD SVG 20010904//EN"
 "http://www.w3.org/TR/2001/REC-SVG-20010904/DTD/svg10.dtd">
<svg version="1.0" xmlns="http://www.w3.org/2000/svg"
 width="600.000000pt" height="600.000000pt" viewBox="0 0 600.000000 600.000000"
 preserveAspectRatio="xMidYMid meet">

<g transform="translate(0.000000,600.000000) scale(0.100000,-0.100000)"
fill="#000000" stroke="none">
<path d="M2750 5850 c-8 -5 -37 -10 -65 -10 -144 -2 -480 -72 -602 -126 -17
-8 -38 -14 -46 -14 -8 0 -36 -9 -63 -21 -27 -11 -58 -24 -69 -28 -62 -25 -352
-173 -371 -189 -6 -5 -20 -13 -32 -16 -12 -4 -22 -11 -22 -16 0 -5 -10 -12
-22 -15 -11 -4 -32 -19 -45 -33 -13 -14 -26 -22 -29 -19 -4 3 -12 1 -19 -6 -7
-7 -23 -19 -35 -27 -12 -8 -28 -19 -34 -25 -6 -5 -29 -22 -51 -37 -22 -15 -51
-38 -65 -50 -14 -13 -55 -47 -90 -77 -119 -100 -265 -256 -383 -408 -64 -83
-117 -154 -117 -158 0 -8 -42 -68 -54 -76 -5 -4 -6 -14 -3 -24 4 -9 3 -14 -1
-11 -9 5 -46 -57 -107 -179 -22 -44 -43 -81 -47 -83 -5 -2 -8 -11 -8 -20 0 -9
-7 -30 -16 -47 -9 -16 -20 -41 -24 -55 -5 -14 -18 -50 -30 -80 -32 -83 -57
-161 -65 -200 -4 -19 -10 -39 -14 -45 -11 -17 -40 -166 -72 -360 -14 -92 -22
-497 -11 -620 13 -138 38 -313 50 -345 5 -14 13 -53 17 -88 4 -34 11 -64 15
-67 4 -3 11 -28 15 -55 4 -27 11 -52 15 -55 5 -3 11 -23 15 -45 4 -22 10 -40
15 -40 4 0 11 -17 15 -37 4 -21 13 -51 20 -68 7 -16 24 -57 36 -90 13 -33 35
-80 48 -105 13 -25 33 -63 44 -85 71 -138 214 -362 264 -414 13 -14 32 -38 41
-53 9 -16 22 -26 29 -24 7 3 10 -1 7 -8 -3 -7 1 -20 8 -27 7 -8 47 -52 88 -98
41 -47 99 -107 129 -135 30 -28 71 -67 90 -86 65 -62 176 -151 269 -215 131
-90 345 -215 369 -215 7 0 13 -4 13 -10 0 -5 5 -10 11 -10 6 0 45 -16 86 -35
41 -19 80 -35 87 -35 7 0 21 -7 32 -15 10 -8 25 -15 32 -15 8 0 28 -6 45 -14
47 -20 169 -56 190 -56 9 0 25 -4 35 -10 36 -20 275 -65 427 -80 246 -25 642
-20 740 11 17 5 57 13 90 18 77 11 165 34 165 42 0 3 11 4 24 2 13 -3 27 0 30
6 4 6 16 11 26 11 21 0 229 68 245 80 6 4 21 11 35 15 42 12 179 74 190 85 3
3 28 16 55 30 76 37 170 92 173 102 2 4 8 8 12 8 10 0 186 118 243 162 20 16
35 34 32 39 -4 5 0 6 7 4 28 -11 383 337 495 483 164 216 286 419 277 463 -4
20 -3 21 4 5 7 -17 10 -15 25 17 9 19 17 40 17 46 0 6 5 11 10 11 6 0 10 5 10
11 0 9 15 46 56 137 9 18 18 49 21 68 3 18 9 34 14 34 4 0 11 15 14 33 4 17
11 37 15 42 4 6 11 26 15 45 4 19 11 41 16 50 12 21 31 110 32 142 0 16 4 28
8 28 5 0 9 13 9 29 0 16 5 42 11 58 27 67 42 251 43 523 0 151 -3 293 -6 315
-4 22 -12 85 -18 139 -7 55 -15 109 -20 120 -4 12 -10 47 -14 78 -4 32 -12 60
-17 63 -5 4 -9 17 -9 30 0 13 -6 44 -14 67 -7 24 -24 77 -36 118 -53 176 -93
269 -223 510 -74 139 -201 315 -219 304 -7 -4 -8 -2 -4 5 11 18 -108 166 -125
155 -5 -3 -6 1 -3 9 12 31 -356 356 -551 487 -116 77 -321 189 -440 240 -27
12 -64 28 -82 36 -17 8 -38 14 -46 14 -9 0 -18 4 -22 9 -3 5 -31 15 -63 22
-31 7 -59 15 -62 18 -25 29 -340 96 -590 127 -95 12 -524 15 -540 4z m656
-185 c49 -8 112 -21 139 -26 28 -6 70 -15 95 -20 25 -5 54 -13 65 -17 11 -5
72 -26 135 -46 113 -36 153 -51 237 -88 23 -10 46 -18 52 -18 13 0 75 -33 79
-42 2 -5 8 -8 14 -8 25 0 305 -177 399 -252 67 -54 99 -84 99 -93 0 -24 -177
-174 -196 -168 -6 2 -17 -3 -24 -12 -7 -8 -19 -15 -26 -15 -8 0 -14 -4 -14 -8
0 -5 -43 -16 -95 -26 -84 -16 -110 -17 -217 -7 -68 7 -145 17 -173 22 -47 10
-100 19 -330 54 -49 8 -133 21 -185 30 -311 50 -484 54 -598 15 -61 -21 -87
-34 -229 -111 -40 -22 -87 -47 -105 -57 -18 -9 -35 -19 -38 -22 -3 -3 -45 -25
-95 -50 -49 -25 -92 -47 -95 -50 -3 -3 -41 -23 -85 -45 -44 -22 -113 -59 -153
-82 -41 -24 -77 -43 -82 -43 -5 0 -15 -6 -22 -13 -7 -7 -24 -18 -38 -25 -38
-18 -68 -38 -116 -77 -18 -14 -36 -25 -42 -25 -6 0 -12 -3 -14 -7 -1 -5 -37
-35 -78 -68 -41 -32 -80 -64 -87 -70 -6 -5 -37 -28 -67 -50 -30 -22 -53 -45
-51 -52 2 -7 -1 -10 -8 -7 -7 2 -26 -8 -43 -23 -16 -16 -49 -41 -72 -57 -23
-16 -42 -33 -42 -37 0 -5 -7 -9 -15 -9 -8 0 -15 -4 -15 -9 0 -4 -19 -21 -42
-37 -24 -16 -47 -35 -51 -41 -4 -7 -15 -13 -22 -13 -8 0 -15 -3 -15 -8 0 -4
-32 -32 -72 -62 -80 -61 -110 -91 -130 -129 -7 -14 -16 -28 -20 -31 -4 -3 -10
-30 -14 -60 -17 -147 75 -241 240 -245 76 -2 79 -3 92 -31 18 -41 36 -60 62
-68 12 -4 20 -11 17 -16 -3 -5 7 -12 22 -16 15 -4 31 -12 35 -18 4 -6 40 -11
86 -11 74 0 85 3 177 49 l98 49 19 -26 c32 -44 103 -71 187 -71 50 0 76 4 79
12 2 7 11 12 21 12 20 0 164 72 181 91 3 3 23 16 45 29 83 49 300 194 303 202
2 4 8 8 13 8 5 0 32 16 59 35 27 19 53 35 56 35 4 0 14 8 23 18 9 10 39 27 66
37 28 10 54 22 60 27 15 13 284 10 322 -4 29 -10 36 -10 43 2 8 13 10 12 10
-2 0 -21 50 -26 51 -5 0 6 4 2 9 -9 5 -12 21 -25 36 -28 27 -7 92 -34 141 -58
11 -6 27 -7 34 -3 7 5 10 4 6 -2 -6 -10 171 -83 201 -83 10 0 22 -4 28 -10 5
-5 36 -12 69 -16 33 -4 62 -11 65 -15 9 -13 204 -13 208 0 5 16 22 14 22 -4 0
-15 12 -20 23 -9 3 3 41 7 84 8 79 3 190 22 208 36 6 4 25 11 43 15 18 4 45
13 60 21 15 8 33 14 40 14 6 0 12 5 12 11 0 5 4 8 8 5 13 -8 137 69 135 82 -2
6 4 9 12 6 8 -4 15 -2 15 2 0 5 12 15 28 21 31 14 137 110 303 273 277 272
317 310 326 310 9 0 81 -138 123 -235 11 -27 25 -57 30 -66 5 -9 12 -33 15
-53 4 -20 11 -36 15 -36 5 0 11 -23 15 -52 4 -29 11 -59 16 -68 4 -8 16 -51
25 -95 85 -409 85 -891 1 -1240 -31 -127 -74 -271 -87 -290 -4 -5 -17 -39 -30
-75 -30 -84 -144 -322 -181 -378 -16 -24 -29 -45 -29 -47 0 -8 -136 -202 -171
-246 -20 -24 -59 -71 -86 -104 -49 -59 -219 -234 -279 -286 -16 -14 -60 -50
-99 -80 -38 -29 -74 -59 -80 -65 -5 -5 -37 -28 -70 -50 -33 -21 -62 -42 -65
-45 -8 -8 -117 -73 -195 -115 -38 -20 -77 -41 -85 -45 -42 -23 -172 -79 -183
-79 -7 0 -21 -6 -32 -14 -11 -7 -36 -17 -55 -21 -19 -4 -41 -11 -50 -16 -29
-16 -248 -78 -302 -85 -29 -4 -57 -10 -63 -14 -40 -31 -600 -46 -807 -23 -120
14 -315 50 -338 62 -9 5 -35 12 -58 16 -23 4 -44 11 -48 16 -3 5 -15 9 -27 9
-12 0 -34 6 -49 14 -15 8 -41 17 -59 21 -19 4 -40 11 -49 16 -8 4 -31 15 -50
23 -19 8 -61 26 -94 40 -32 14 -65 26 -72 26 -8 0 -14 4 -14 10 0 5 -11 12
-25 16 -14 3 -25 10 -25 14 0 4 -12 11 -27 15 -15 3 -30 10 -33 14 -13 18 -82
52 -96 47 -8 -3 -12 -2 -9 4 3 5 -7 17 -22 27 -15 10 -30 20 -33 23 -3 3 -44
31 -91 63 -47 31 -96 68 -109 82 l-23 24 31 28 c34 32 45 41 85 66 15 10 25
22 22 27 -3 6 0 7 8 4 8 -3 20 2 27 11 7 8 19 15 26 15 8 0 14 4 14 8 0 7 26
18 90 37 3 1 13 5 23 9 9 5 68 5 130 1 61 -3 133 -7 160 -8 26 -1 47 -5 47 -9
0 -5 13 -8 29 -8 16 0 60 -6 98 -14 37 -8 102 -17 143 -21 41 -4 81 -11 90
-15 20 -11 171 -31 242 -33 31 -1 54 -5 52 -8 -6 -10 99 -20 246 -25 180 -6
215 4 485 142 309 157 325 166 319 175 -3 5 1 6 9 3 8 -3 39 9 68 26 30 17 61
35 69 40 8 4 14 13 13 19 -2 6 3 8 11 5 7 -3 36 8 63 24 28 16 60 33 71 37 12
3 22 11 22 16 0 5 6 9 13 9 8 0 24 9 37 20 13 11 27 20 31 20 14 0 113 64 137
88 12 13 27 20 32 17 6 -3 10 -2 10 4 0 5 8 12 18 15 11 4 25 17 32 31 7 13
17 22 21 19 8 -5 18 1 54 33 7 7 16 13 20 13 14 0 84 63 79 71 -3 5 2 6 10 3
9 -4 18 1 22 10 3 9 10 16 15 16 8 0 267 196 279 211 3 3 37 30 75 60 98 76
144 119 163 154 29 52 52 119 52 148 0 59 -72 152 -139 179 -14 6 -63 11 -107
11 l-82 1 -13 34 c-15 37 -80 102 -103 102 -8 0 -16 5 -18 11 -6 19 -160 15
-204 -5 -61 -27 -117 -58 -135 -72 -21 -19 -21 -19 -62 20 -38 36 -111 66
-159 66 -52 0 -144 -38 -257 -107 -61 -37 -120 -72 -129 -78 -41 -23 -128 -81
-140 -92 -7 -7 -19 -13 -27 -13 -7 0 -15 -4 -17 -8 -1 -4 -32 -25 -68 -47 -36
-21 -72 -44 -80 -51 -8 -6 -42 -27 -75 -44 -142 -77 -154 -82 -223 -83 -123
-2 -245 14 -333 44 -78 26 -128 47 -304 129 -33 15 -71 31 -85 35 -14 4 -29
11 -35 15 -5 5 -28 11 -50 15 -22 4 -44 11 -50 15 -13 11 -104 30 -192 40 -85
10 -272 -3 -358 -24 -116 -28 -146 -36 -163 -45 -9 -5 -51 -26 -93 -46 -127
-61 -267 -176 -527 -434 -133 -133 -246 -241 -251 -241 -5 0 -13 6 -19 12 -18
23 -129 243 -142 283 -7 22 -16 45 -20 50 -5 6 -11 27 -15 48 -4 20 -11 39
-15 42 -5 3 -11 24 -15 48 -4 23 -11 47 -15 52 -4 6 -11 26 -14 45 -4 19 -13
62 -21 95 -48 209 -70 408 -69 635 0 143 20 371 38 450 4 14 11 56 16 93 6 38
14 76 19 85 5 9 12 43 16 75 4 31 11 57 15 57 4 0 10 19 14 42 4 23 10 47 15
53 4 5 21 51 37 100 16 50 32 92 37 93 4 2 7 9 7 15 1 7 9 30 20 52 11 22 19
46 20 53 0 6 4 12 9 12 5 0 12 11 15 24 3 13 22 52 41 86 19 34 35 66 35 71 0
5 5 9 10 9 6 0 10 7 10 15 0 9 7 18 15 21 8 4 15 12 15 20 0 8 9 22 20 31 11
10 20 23 20 29 0 6 9 22 20 35 11 13 23 29 28 34 4 6 11 18 15 28 3 9 11 17
16 17 5 0 13 10 16 21 4 12 22 35 41 51 19 17 34 36 34 44 0 8 4 14 9 14 7 0
68 60 152 150 13 14 65 62 114 105 50 44 104 92 120 107 17 15 34 28 38 28 5
0 5 5 2 10 -3 6 1 10 10 10 15 0 94 55 143 100 13 11 27 18 33 15 5 -4 9 -2 9
2 0 5 21 20 48 33 26 14 49 27 52 30 3 3 33 19 67 35 35 17 63 33 63 38 0 4 6
7 13 7 7 0 29 9 50 20 20 11 44 20 52 20 8 0 15 4 15 8 0 5 22 14 50 21 27 7
52 17 56 22 3 5 13 9 22 9 9 0 29 6 44 14 15 8 42 17 60 21 18 4 38 11 43 15
6 4 33 13 60 20 110 26 162 39 195 49 19 6 50 11 68 11 18 0 42 5 53 11 59 31
690 34 855 4z m1224 -425 c0 -5 -5 -10 -11 -10 -5 0 -7 5 -4 10 3 6 8 10 11
10 2 0 4 -4 4 -10z m-1543 -286 c-3 -3 -12 -4 -19 -1 -8 3 -5 6 6 6 11 1 17
-2 13 -5z m1813 -57 c72 -69 209 -220 255 -282 17 -22 32 -42 35 -45 10 -9
116 -171 135 -206 9 -17 -574 -594 -655 -648 -179 -120 -384 -178 -620 -175
-74 1 -161 9 -215 19 -94 19 -251 72 -326 110 -24 13 -55 26 -69 31 -14 4 -50
17 -80 29 -139 54 -206 62 -517 67 -324 4 -346 8 -408 73 -26 27 -30 38 -30
93 0 79 32 131 108 173 l52 29 360 0 c198 0 439 -3 536 -7 197 -9 212 -5 212
51 0 56 -11 60 -198 66 -94 3 -210 7 -260 10 -49 3 -180 8 -290 11 -331 10
-483 -26 -577 -137 -33 -37 -65 -60 -134 -94 -77 -37 -157 -82 -299 -168 -70
-42 -511 -338 -566 -380 -80 -60 -131 -81 -199 -81 -76 -1 -122 21 -141 67
-10 24 -9 35 9 72 16 34 62 75 234 211 117 92 215 171 218 174 3 4 48 40 100
80 52 41 97 77 100 80 10 11 225 176 250 192 41 25 127 71 260 140 69 36 154
81 190 100 36 20 101 55 145 78 44 23 109 59 145 80 224 128 257 140 403 140
61 0 141 -5 177 -11 36 -5 94 -14 130 -19 36 -5 126 -19 200 -30 74 -12 176
-27 225 -35 163 -25 289 -45 338 -55 178 -36 388 29 593 185 55 41 101 74 104
75 3 0 34 -28 70 -63z m-2303 -679 c-3 -8 -6 -5 -6 6 -1 11 2 17 5 13 3 -3 4
-12 1 -19z m-222 -226 c-3 -3 -11 0 -18 7 -9 10 -8 11 6 5 10 -3 15 -9 12 -12z
m-82 -78 c5 -27 9 -56 10 -65 1 -10 -54 -57 -143 -124 -501 -375 -478 -359
-581 -411 -89 -45 -161 -51 -206 -18 -48 36 -38 61 47 120 41 29 109 77 150
107 69 50 374 256 480 323 77 49 214 122 225 120 5 -2 14 -25 18 -52z m123
-183 c15 -14 105 -41 138 -41 30 0 65 -15 56 -23 -3 -3 -21 -12 -40 -22 -19
-10 -138 -86 -265 -170 -259 -172 -292 -190 -355 -199 -51 -7 -115 18 -115 45
0 14 146 128 462 361 77 57 100 66 119 49z m-246 -61 c0 -5 -4 -10 -10 -10 -5
0 -10 5 -10 10 0 6 5 10 10 10 6 0 10 -4 10 -10z m-15 -370 c3 -5 1 -10 -4
-10 -6 0 -11 5 -11 10 0 6 2 10 4 10 3 0 8 -4 11 -10z m2497 -706 c15 -15 28
-33 28 -38 -1 -6 -29 -29 -63 -51 -34 -22 -154 -105 -267 -184 -353 -249 -577
-391 -616 -391 -6 0 -17 28 -24 62 -11 56 -10 64 4 73 55 34 507 367 563 414
20 17 146 97 183 116 81 42 147 41 192 -1z m-502 10 c47 -19 50 -31 13 -66
-62 -57 -440 -337 -517 -382 -33 -19 -33 -19 -63 2 -19 13 -59 25 -116 33 -81
11 -97 21 -58 37 9 4 105 61 214 127 109 66 213 129 232 140 19 11 59 35 91
54 50 30 137 69 156 71 4 0 26 -7 48 -16z m794 -148 c39 -16 66 -51 66 -85 0
-42 -40 -91 -144 -171 -55 -44 -171 -135 -257 -202 -500 -394 -445 -356 -689
-486 -36 -19 -83 -44 -105 -57 -22 -12 -76 -42 -120 -65 -44 -24 -107 -57
-140 -75 -312 -167 -371 -196 -440 -218 -100 -31 -161 -39 -261 -34 -97 5
-131 10 -444 62 -85 14 -198 32 -250 40 -52 9 -135 23 -185 31 -123 22 -304
21 -377 0 -83 -25 -177 -76 -269 -148 -45 -35 -88 -67 -96 -73 -12 -8 -43 19
-145 125 -71 74 -158 171 -192 215 -58 74 -196 271 -196 279 0 5 436 437 470
466 14 12 40 35 59 52 63 58 186 141 261 175 112 53 179 72 303 87 232 28 397
-5 675 -133 187 -87 212 -95 375 -126 138 -26 168 -28 392 -29 229 -1 246 -4
307 -43 122 -76 65 -258 -96 -305 -50 -15 -493 -14 -744 2 -226 13 -335 13
-350 -2 -20 -20 -15 -86 8 -98 18 -10 149 -15 800 -34 268 -8 398 25 490 124
25 26 77 65 115 85 57 30 204 117 319 188 37 23 202 133 301 202 256 177 362
242 419 255 51 13 104 11 140 -4z m156 -90 c0 -3 -4 -8 -10 -11 -5 -3 -10 -1
-10 4 0 6 5 11 10 11 6 0 10 -2 10 -4z m-1770 -670 c0 -11 -19 -15 -25 -6 -3
5 1 10 9 10 9 0 16 -2 16 -4z m-885 -36 c3 -6 -1 -7 -9 -4 -18 7 -21 14 -7 14
6 0 13 -4 16 -10z m-715 -540 c0 -5 -5 -10 -11 -10 -5 0 -7 5 -4 10 3 6 8 10
11 10 2 0 4 -4 4 -10z m1260 -150 c0 -5 -9 -6 -20 -3 -11 3 -17 9 -15 14 7 10
35 1 35 -11z m-130 -720 c0 -5 -5 -10 -11 -10 -5 0 -7 5 -4 10 3 6 8 10 11 10
2 0 4 -4 4 -10z"/>
</g>
</svg>
